<svg width="26" height="28" viewBox="0 0 26 28" fill="none" xmlns="http://www.w3.org/2000/svg">
<path d="M19.1743 18.3232C22.4611 16.5093 24.9714 15.1239 25.1997 14.9977C25.8809 14.6218 26.5945 13.6625 25.1997 12.8957C24.7514 12.6488 22.3087 11.3058 19.1704 9.57959L14.854 13.9649L19.1743 18.3232Z" fill="#FFE300"/>
<path d="M14.8538 13.9649L1.0484 27.9904C1.36017 28.0303 1.73515 27.9471 2.16646 27.709C3.0594 27.2163 12.6489 21.9239 19.1743 18.3227L14.8538 13.9649Z" fill="#FF4E54"/>
<path d="M14.8538 13.9649L19.1702 9.57957C19.1702 9.57957 3.1269 0.75449 2.16645 0.226186C1.79727 0.0230589 1.39477 -0.0478296 1.0385 0.0321639L14.8538 13.9649Z" fill="#00F085"/>
<path d="M14.8538 13.965L1.03829 0.0324707C0.467649 0.160807 0 0.658761 0 1.65966V26.3189C0 27.2615 0.367884 27.9244 1.04818 27.9905L14.8538 13.965Z" fill="#00E0FF"/>
</svg>
